<?xml version="1.0" encoding="iso-8859-1"?>
<!-- Uploaded to: SVG Repo, www.svgrepo.com, Transformed by: SVG Repo Tools -->
<svg height="800px" width="800px" version="1.1" id="Layer_1" xmlns="http://www.w3.org/2000/svg" xmlns:xlink="http://www.w3.org/1999/xlink" 
	 viewBox="0 0 512 512" xml:space="preserve">
<g>
	<path style="fill:#D0E8FF;" d="M393.143,406.857c-20.17,0-36.571,16.402-36.571,36.571S372.973,480,393.143,480
		c20.17,0,36.571-16.402,36.571-36.571S413.312,406.857,393.143,406.857z"/>
	<path style="fill:#D0E8FF;" d="M201.143,306.286v-91.429H100.571c-0.596,0-1.116-0.23-1.68-0.339l-60.606,81.589
		c-2.155,2.902-4.209,6.42-6.173,10.179H201.143z"/>
	<path style="fill:#D0E8FF;" d="M118.857,406.857c-18.96,0-34.408,14.547-36.214,33.04v7.064C84.449,465.453,99.897,480,118.857,480
		c20.17,0,36.571-16.402,36.571-36.571S139.027,406.857,118.857,406.857z"/>
	<path style="fill:#D0E8FF;" d="M347.429,114.286c0-15.125-12.304-27.429-27.429-27.429c-15.125,0-27.429,12.304-27.429,27.429
		v36.571h54.857V114.286z"/>
	<path style="fill:#D0E8FF;" d="M365.714,214.857c-30.25,0-54.857,24.607-54.857,54.857s24.607,54.857,54.857,54.857
		c30.25,0,54.857-24.607,54.857-54.857S395.964,214.857,365.714,214.857z M402.286,278.857h-27.429v27.429h-18.286v-27.429h-27.429
		v-18.286h27.429v-27.429h18.286v27.429h27.429V278.857z"/>
</g>
<path style="fill:#5CB0FF;" d="M466.232,169.143H356.571h-73.143H164.625c-17.357,0-40.75,11.75-51.089,25.661l-1.313,1.768h98.063
	c5.053,0,9.143,4.089,9.143,9.143v109.714c0,5.053-4.089,9.143-9.143,9.143H24.37c-3.725,11.138-6.084,22.766-6.084,31.964v50.357
	c0,15.107,12.321,27.393,27.464,27.393h19.076c4.373-25.903,26.902-45.714,54.031-45.714s49.658,19.811,54.031,45.714h166.223
	c4.373-25.903,26.902-45.714,54.031-45.714s49.658,19.811,54.031,45.714h19.076c15.143,0,27.464-12.321,27.464-27.473V196.616
	C493.714,181.464,481.384,169.143,466.232,169.143z M365.714,342.857c-40.33,0-73.143-32.813-73.143-73.143
	s32.813-73.143,73.143-73.143s73.143,32.813,73.143,73.143S406.045,342.857,365.714,342.857z"/>
<g>
	<path style="fill:#1C71DA;" d="M466.232,150.857H365.714v-36.571c0-25.205-20.509-45.714-45.714-45.714
		c-25.205,0-45.714,20.509-45.714,45.714v36.571H164.625c-23.107,0-52,14.509-65.768,33.036l-75.25,101.304
		C10.366,303.018,0,334.348,0,356.536v50.357c0,25.188,20.527,45.679,45.75,45.679h19.076c4.373,25.903,26.902,45.714,54.031,45.714
		s49.658-19.811,54.031-45.714h166.223c4.373,25.903,26.902,45.714,54.031,45.714s49.658-19.811,54.031-45.714h19.076
		c25.223,0,45.75-20.527,45.75-45.759V196.616C512,171.384,491.464,150.857,466.232,150.857z M292.571,114.286
		c0-15.125,12.304-27.429,27.429-27.429c15.125,0,27.429,12.304,27.429,27.429v36.571h-54.857V114.286z M98.891,214.518
		c0.564,0.109,1.084,0.339,1.68,0.339h100.571v91.429H32.112c1.964-3.758,4.018-7.277,6.173-10.179L98.891,214.518z M118.857,480
		c-18.96,0-34.408-14.547-36.214-33.04v-7.064c1.806-18.493,17.255-33.04,36.214-33.04c20.17,0,36.571,16.402,36.571,36.571
		S139.027,480,118.857,480z M393.143,480c-20.17,0-36.571-16.402-36.571-36.571s16.402-36.571,36.571-36.571
		c20.17,0,36.571,16.402,36.571,36.571S413.312,480,393.143,480z M493.714,406.813c0,15.152-12.321,27.473-27.464,27.473h-19.076
		c-4.373-25.903-26.902-45.714-54.031-45.714s-49.658,19.811-54.031,45.714H172.888c-4.373-25.903-26.902-45.714-54.031-45.714
		s-49.658,19.811-54.031,45.714H45.75c-15.143,0-27.464-12.286-27.464-27.393v-50.357c0-9.199,2.359-20.826,6.084-31.964h185.916
		c5.053,0,9.143-4.089,9.143-9.143V205.714c0-5.053-4.089-9.143-9.143-9.143h-98.063l1.313-1.768
		c10.339-13.911,33.732-25.661,51.089-25.661h118.804h73.143h109.661c15.152,0,27.482,12.321,27.482,27.473V406.813z"/>
	<path style="fill:#1C71DA;" d="M365.714,196.571c-40.33,0-73.143,32.813-73.143,73.143s32.813,73.143,73.143,73.143
		s73.143-32.813,73.143-73.143S406.045,196.571,365.714,196.571z M365.714,324.571c-30.25,0-54.857-24.607-54.857-54.857
		s24.607-54.857,54.857-54.857c30.25,0,54.857,24.607,54.857,54.857S395.964,324.571,365.714,324.571z"/>
	<polygon style="fill:#1C71DA;" points="374.857,233.143 356.571,233.143 356.571,260.571 329.143,260.571 329.143,278.857 
		356.571,278.857 356.571,306.286 374.857,306.286 374.857,278.857 402.286,278.857 402.286,260.571 374.857,260.571 	"/>
	<path style="fill:#1C71DA;" d="M258.679,84.179c1.786,1.786,4.125,2.679,6.464,2.679c2.339,0,4.679-0.893,6.464-2.679
		c3.571-3.571,3.571-9.357,0-12.928l-23.312-23.312c-3.571-3.571-9.357-3.571-12.928,0c-3.571,3.571-3.571,9.357,0,12.928
		L258.679,84.179z"/>
	<path style="fill:#1C71DA;" d="M374.857,86.857c2.339,0,4.679-0.893,6.464-2.679l23.312-23.312c3.571-3.571,3.571-9.357,0-12.928
		c-3.571-3.571-9.357-3.571-12.928,0L368.393,71.25c-3.571,3.571-3.571,9.357,0,12.928
		C370.179,85.964,372.518,86.857,374.857,86.857z"/>
	<path style="fill:#1C71DA;" d="M320,59.429c5.054,0,9.143-4.089,9.143-9.143V22.857c0-5.053-4.089-9.143-9.143-9.143
		c-5.053,0-9.143,4.089-9.143,9.143v27.429C310.857,55.339,314.947,59.429,320,59.429z"/>
</g>
<g>
	<path style="fill:#FF5D5D;" d="M120.033,121.143c-2.339,0-4.681-0.893-6.464-2.679c-3.571-3.569-3.571-9.359,0-12.928
		l32.326-32.326c3.567-3.571,9.362-3.571,12.928,0c3.571,3.569,3.571,9.359,0,12.928l-32.326,32.326
		C124.714,120.25,122.373,121.143,120.033,121.143z"/>
	<path style="fill:#FF5D5D;" d="M152.359,121.143c-2.339,0-4.681-0.893-6.464-2.679l-32.326-32.326
		c-3.571-3.569-3.571-9.359,0-12.928c3.567-3.571,9.362-3.571,12.928,0l32.326,32.326c3.571,3.569,3.571,9.359,0,12.928
		C157.04,120.25,154.699,121.143,152.359,121.143z"/>
</g>
<path style="fill:#00D40B;" d="M472.033,121.143c-17.645,0-32-14.355-32-32s14.355-32,32-32s32,14.355,32,32
	S489.679,121.143,472.033,121.143z M472.033,75.429c-7.563,0-13.714,6.152-13.714,13.714s6.152,13.714,13.714,13.714
	s13.714-6.152,13.714-13.714S479.596,75.429,472.033,75.429z"/>
<path style="fill:#FFC504;" d="M273.893,401.433c-2.339,0-4.679-0.893-6.464-2.679l-25.859-25.859
	c-3.571-3.569-3.571-9.359,0-12.928l25.859-25.859c3.567-3.571,9.357-3.571,12.928,0l25.862,25.859
	c1.714,1.714,2.679,4.04,2.679,6.464c0,2.424-0.964,4.75-2.679,6.464l-25.862,25.859
	C278.571,400.54,276.232,401.433,273.893,401.433z M260.964,366.431l12.928,12.931l12.931-12.931L273.893,353.5L260.964,366.431z"/>
<g>
</g>
<g>
</g>
<g>
</g>
<g>
</g>
<g>
</g>
<g>
</g>
<g>
</g>
<g>
</g>
<g>
</g>
<g>
</g>
<g>
</g>
<g>
</g>
<g>
</g>
<g>
</g>
<g>
</g>
</svg>